<!-- Generated by IcoMoon.io -->
<svg version="1.1" xmlns="http://www.w3.org/2000/svg" width="29" height="32" viewBox="0 0 29 32">
<title>Vector2</title>
<path fill="#8e8f99" d="M0 19.446c0.010 3.326 1.478 6.514 4.086 8.866s6.144 3.678 9.832 3.688c3.688-0.010 7.222-1.334 9.83-3.686s4.077-5.536 4.088-8.864v-18.338s-27.837 2.795-27.837 18.334zM13.918 22.733c-0.72 0-1.426-0.192-2.026-0.554-0.585-0.349-1.045-0.853-1.334-1.455l-0.009-0.020c-0.175-0.369-0.277-0.801-0.277-1.257 0-0.227 0.025-0.448 0.073-0.66l-0.004 0.020c0.158-0.674 0.51-1.25 0.995-1.68l0.003-0.003c0.507-0.452 1.142-0.771 1.844-0.896l0.023-0.003c0.706-0.128 1.44-0.062 2.106 0.187 0.666 0.248 1.235 0.669 1.635 1.21s0.614 1.176 0.614 1.826c0.002 0.432-0.091 0.862-0.274 1.262s-0.451 0.763-0.789 1.069c-0.334 0.301-0.727 0.544-1.159 0.708l-0.025 0.008c-0.414 0.159-0.894 0.251-1.394 0.251-0.001 0-0.003 0-0.004 0h0v-0.013z"></path>
</svg>
